<mxfile host="app.diagrams.net" agent="Mozilla/5.0 (Windows NT 10.0; Win64; x64) AppleWebKit/537.36 (KHTML, like Gecko) Chrome/127.0.0.0 Safari/537.36 OPR/113.0.0.0" version="24.7.14">
  <diagram name="Página-1" id="PgK6r74U-EtZ8FmXBwel">
    <mxGraphModel grid="1" page="1" gridSize="10" guides="1" tooltips="1" connect="1" arrows="1" fold="1" pageScale="1" pageWidth="827" pageHeight="1169" math="0" shadow="0">
      <root>
        <mxCell id="0" />
        <mxCell id="1" parent="0" />
        <mxCell id="kUAFl6Fe_6QXL4x13sF0-3" value="Interfaz" style="shape=umlLifeline;perimeter=lifelinePerimeter;whiteSpace=wrap;html=1;container=1;collapsible=0;recursiveResize=0;outlineConnect=0;rounded=1;shadow=0;comic=0;labelBackgroundColor=none;strokeWidth=1;fontFamily=Verdana;fontSize=12;align=center;" vertex="1" parent="1">
          <mxGeometry x="400" y="40" width="100" height="440" as="geometry" />
        </mxCell>
        <mxCell id="kUAFl6Fe_6QXL4x13sF0-4" value="" style="html=1;points=[];perimeter=orthogonalPerimeter;rounded=0;shadow=0;comic=0;labelBackgroundColor=none;strokeWidth=1;fontFamily=Verdana;fontSize=12;align=center;" vertex="1" parent="kUAFl6Fe_6QXL4x13sF0-3">
          <mxGeometry x="45" y="100" width="10" height="20" as="geometry" />
        </mxCell>
        <mxCell id="kUAFl6Fe_6QXL4x13sF0-5" value="" style="html=1;points=[];perimeter=orthogonalPerimeter;rounded=0;shadow=0;comic=0;labelBackgroundColor=none;strokeWidth=1;fontFamily=Verdana;fontSize=12;align=center;" vertex="1" parent="kUAFl6Fe_6QXL4x13sF0-3">
          <mxGeometry x="45" y="130" width="10" height="30" as="geometry" />
        </mxCell>
        <mxCell id="kUAFl6Fe_6QXL4x13sF0-6" value="" style="html=1;points=[];perimeter=orthogonalPerimeter;rounded=0;shadow=0;comic=0;labelBackgroundColor=none;strokeWidth=1;fontFamily=Verdana;fontSize=12;align=center;" vertex="1" parent="kUAFl6Fe_6QXL4x13sF0-3">
          <mxGeometry x="45" y="320" width="10" height="30" as="geometry" />
        </mxCell>
        <mxCell id="kUAFl6Fe_6QXL4x13sF0-29" value="" style="html=1;points=[];perimeter=orthogonalPerimeter;rounded=0;shadow=0;comic=0;labelBackgroundColor=none;strokeWidth=1;fontFamily=Verdana;fontSize=12;align=center;" vertex="1" parent="kUAFl6Fe_6QXL4x13sF0-3">
          <mxGeometry x="45" y="200" width="10" height="20" as="geometry" />
        </mxCell>
        <mxCell id="kUAFl6Fe_6QXL4x13sF0-7" value="Capa de negocio" style="shape=umlLifeline;perimeter=lifelinePerimeter;whiteSpace=wrap;html=1;container=1;collapsible=0;recursiveResize=0;outlineConnect=0;rounded=1;shadow=0;comic=0;labelBackgroundColor=none;strokeWidth=1;fontFamily=Verdana;fontSize=12;align=center;" vertex="1" parent="1">
          <mxGeometry x="600" y="40" width="100" height="440" as="geometry" />
        </mxCell>
        <mxCell id="kUAFl6Fe_6QXL4x13sF0-11" value="" style="html=1;points=[];perimeter=orthogonalPerimeter;rounded=0;shadow=0;comic=0;labelBackgroundColor=none;strokeWidth=1;fontFamily=Verdana;fontSize=12;align=center;" vertex="1" parent="kUAFl6Fe_6QXL4x13sF0-7">
          <mxGeometry x="45" y="270" width="10" height="50" as="geometry" />
        </mxCell>
        <mxCell id="kUAFl6Fe_6QXL4x13sF0-9" value="" style="html=1;points=[];perimeter=orthogonalPerimeter;rounded=0;shadow=0;comic=0;labelBackgroundColor=none;strokeWidth=1;fontFamily=Verdana;fontSize=12;align=center;" vertex="1" parent="kUAFl6Fe_6QXL4x13sF0-7">
          <mxGeometry x="50" y="270" width="10" height="20" as="geometry" />
        </mxCell>
        <mxCell id="kUAFl6Fe_6QXL4x13sF0-10" value="9.-Valida los datos" style="html=1;verticalAlign=bottom;endArrow=block;labelBackgroundColor=none;fontFamily=Verdana;fontSize=12;elbow=vertical;edgeStyle=orthogonalEdgeStyle;curved=1;entryX=1.1;entryY=1;entryPerimeter=0;entryDx=0;entryDy=0;exitX=1.02;exitY=0.012;exitDx=0;exitDy=0;exitPerimeter=0;" edge="1" parent="kUAFl6Fe_6QXL4x13sF0-7" source="kUAFl6Fe_6QXL4x13sF0-9" target="kUAFl6Fe_6QXL4x13sF0-9">
          <mxGeometry x="0.2998" y="40" relative="1" as="geometry">
            <mxPoint x="75" y="269.97" as="sourcePoint" />
            <mxPoint x="80.00333333333356" y="308.3033333333334" as="targetPoint" />
            <Array as="points">
              <mxPoint x="85" y="270" />
              <mxPoint x="85" y="290" />
            </Array>
            <mxPoint x="35" y="-20" as="offset" />
          </mxGeometry>
        </mxCell>
        <mxCell id="kUAFl6Fe_6QXL4x13sF0-8" value="" style="html=1;points=[];perimeter=orthogonalPerimeter;rounded=0;shadow=0;comic=0;labelBackgroundColor=none;strokeWidth=1;fontFamily=Verdana;fontSize=12;align=center;" vertex="1" parent="kUAFl6Fe_6QXL4x13sF0-7">
          <mxGeometry x="45" y="220" width="10" height="20" as="geometry" />
        </mxCell>
        <mxCell id="kUAFl6Fe_6QXL4x13sF0-12" value="Base de datos" style="shape=umlLifeline;perimeter=lifelinePerimeter;whiteSpace=wrap;html=1;container=1;collapsible=0;recursiveResize=0;outlineConnect=0;rounded=1;shadow=0;comic=0;labelBackgroundColor=none;strokeWidth=1;fontFamily=Verdana;fontSize=12;align=center;" vertex="1" parent="1">
          <mxGeometry x="820" y="40" width="100" height="440" as="geometry" />
        </mxCell>
        <mxCell id="kUAFl6Fe_6QXL4x13sF0-13" value="" style="html=1;points=[];perimeter=orthogonalPerimeter;rounded=0;shadow=0;comic=0;labelBackgroundColor=none;strokeWidth=1;fontFamily=Verdana;fontSize=12;align=center;" vertex="1" parent="kUAFl6Fe_6QXL4x13sF0-12">
          <mxGeometry x="45" y="240" width="10" height="30" as="geometry" />
        </mxCell>
        <mxCell id="kUAFl6Fe_6QXL4x13sF0-15" value="Usuario" style="shape=umlLifeline;perimeter=lifelinePerimeter;whiteSpace=wrap;html=1;container=1;collapsible=0;recursiveResize=0;outlineConnect=0;rounded=1;shadow=0;comic=0;labelBackgroundColor=none;strokeWidth=1;fontFamily=Verdana;fontSize=12;align=center;" vertex="1" parent="1">
          <mxGeometry x="190" y="40" width="100" height="440" as="geometry" />
        </mxCell>
        <mxCell id="kUAFl6Fe_6QXL4x13sF0-16" value="" style="html=1;points=[];perimeter=orthogonalPerimeter;rounded=0;shadow=0;comic=0;labelBackgroundColor=none;strokeWidth=1;fontFamily=Verdana;fontSize=12;align=center;" vertex="1" parent="kUAFl6Fe_6QXL4x13sF0-15">
          <mxGeometry x="45" y="100" width="10" height="250" as="geometry" />
        </mxCell>
        <mxCell id="kUAFl6Fe_6QXL4x13sF0-17" value="1.-Iniciar aplicación" style="html=1;verticalAlign=bottom;endArrow=block;entryX=0;entryY=0;labelBackgroundColor=none;fontFamily=Verdana;fontSize=12;edgeStyle=elbowEdgeStyle;elbow=vertical;exitX=0.68;exitY=-0.003;exitDx=0;exitDy=0;exitPerimeter=0;" edge="1" parent="1" source="kUAFl6Fe_6QXL4x13sF0-16" target="kUAFl6Fe_6QXL4x13sF0-4">
          <mxGeometry relative="1" as="geometry">
            <mxPoint x="250" y="140" as="sourcePoint" />
            <mxPoint as="offset" />
          </mxGeometry>
        </mxCell>
        <mxCell id="kUAFl6Fe_6QXL4x13sF0-21" value="3.-Seleccion Iniciar sesión" style="html=1;verticalAlign=bottom;endArrow=block;labelBackgroundColor=none;fontFamily=Verdana;fontSize=12;edgeStyle=elbowEdgeStyle;elbow=vertical;entryX=-0.1;entryY=0.033;entryDx=0;entryDy=0;entryPerimeter=0;exitX=0.96;exitY=0.118;exitDx=0;exitDy=0;exitPerimeter=0;" edge="1" parent="1" source="kUAFl6Fe_6QXL4x13sF0-16" target="kUAFl6Fe_6QXL4x13sF0-5">
          <mxGeometry x="0.0458" y="-19" relative="1" as="geometry">
            <mxPoint x="250" y="170" as="sourcePoint" />
            <mxPoint x="435.6700000000001" y="171.26999999999998" as="targetPoint" />
            <mxPoint as="offset" />
          </mxGeometry>
        </mxCell>
        <mxCell id="kUAFl6Fe_6QXL4x13sF0-24" value="10.-Despliega los datos" style="html=1;verticalAlign=bottom;endArrow=block;labelBackgroundColor=none;fontFamily=Verdana;fontSize=12;edgeStyle=elbowEdgeStyle;elbow=vertical;exitX=0.12;exitY=1;exitDx=0;exitDy=0;exitPerimeter=0;entryX=0.96;entryY=0.016;entryDx=0;entryDy=0;entryPerimeter=0;" edge="1" parent="1" source="kUAFl6Fe_6QXL4x13sF0-11" target="kUAFl6Fe_6QXL4x13sF0-6">
          <mxGeometry relative="1" as="geometry">
            <mxPoint x="637" y="410" as="sourcePoint" />
            <Array as="points">
              <mxPoint x="550" y="360" />
            </Array>
            <mxPoint x="480" y="410" as="targetPoint" />
          </mxGeometry>
        </mxCell>
        <mxCell id="kUAFl6Fe_6QXL4x13sF0-25" value="11.-Vizualizacion de los datos" style="html=1;verticalAlign=bottom;endArrow=block;labelBackgroundColor=none;fontFamily=Verdana;fontSize=12;edgeStyle=elbowEdgeStyle;elbow=vertical;exitX=0.5;exitY=1;exitDx=0;exitDy=0;exitPerimeter=0;entryX=1.007;entryY=1.001;entryDx=0;entryDy=0;entryPerimeter=0;" edge="1" parent="1" source="kUAFl6Fe_6QXL4x13sF0-6" target="kUAFl6Fe_6QXL4x13sF0-16">
          <mxGeometry x="0.0003" relative="1" as="geometry">
            <mxPoint x="441" y="440" as="sourcePoint" />
            <Array as="points" />
            <mxPoint x="260" y="389" as="targetPoint" />
            <mxPoint as="offset" />
          </mxGeometry>
        </mxCell>
        <mxCell id="kUAFl6Fe_6QXL4x13sF0-26" value="2.-Despliegue Menú inicial" style="html=1;verticalAlign=bottom;endArrow=block;labelBackgroundColor=none;fontFamily=Verdana;fontSize=12;edgeStyle=elbowEdgeStyle;elbow=vertical;exitX=-0.08;exitY=1;exitDx=0;exitDy=0;exitPerimeter=0;entryX=0.88;entryY=0.08;entryDx=0;entryDy=0;entryPerimeter=0;" edge="1" parent="1" source="kUAFl6Fe_6QXL4x13sF0-4" target="kUAFl6Fe_6QXL4x13sF0-16">
          <mxGeometry x="0.0028" y="1" relative="1" as="geometry">
            <mxPoint x="454.6700000000001" y="161.09000000000003" as="sourcePoint" />
            <mxPoint x="250" y="160" as="targetPoint" />
            <mxPoint as="offset" />
          </mxGeometry>
        </mxCell>
        <mxCell id="kUAFl6Fe_6QXL4x13sF0-27" value="4.-Despliegue inicio sesión" style="html=1;verticalAlign=bottom;endArrow=block;labelBackgroundColor=none;fontFamily=Verdana;fontSize=12;edgeStyle=elbowEdgeStyle;elbow=vertical;exitX=-0.04;exitY=1;exitDx=0;exitDy=0;exitPerimeter=0;entryX=0.96;entryY=0.243;entryDx=0;entryDy=0;entryPerimeter=0;" edge="1" parent="1" source="kUAFl6Fe_6QXL4x13sF0-5" target="kUAFl6Fe_6QXL4x13sF0-16">
          <mxGeometry x="-0.0497" y="20" relative="1" as="geometry">
            <mxPoint x="449.00000000000006" y="201.09000000000003" as="sourcePoint" />
            <mxPoint x="260" y="200" as="targetPoint" />
            <mxPoint as="offset" />
            <Array as="points">
              <mxPoint x="260" y="200" />
            </Array>
          </mxGeometry>
        </mxCell>
        <mxCell id="kUAFl6Fe_6QXL4x13sF0-28" value="5.-Ingresar datos de inicio" style="html=1;verticalAlign=bottom;endArrow=block;labelBackgroundColor=none;fontFamily=Verdana;fontSize=12;edgeStyle=elbowEdgeStyle;elbow=vertical;entryX=-0.08;entryY=0;entryDx=0;entryDy=0;entryPerimeter=0;exitX=0.96;exitY=0.397;exitDx=0;exitDy=0;exitPerimeter=0;" edge="1" parent="1" source="kUAFl6Fe_6QXL4x13sF0-16" target="kUAFl6Fe_6QXL4x13sF0-29">
          <mxGeometry relative="1" as="geometry">
            <mxPoint x="250" y="240" as="sourcePoint" />
            <mxPoint as="offset" />
            <mxPoint x="410" y="240" as="targetPoint" />
          </mxGeometry>
        </mxCell>
        <mxCell id="kUAFl6Fe_6QXL4x13sF0-30" value="6.-Datos de usuario" style="html=1;verticalAlign=bottom;endArrow=block;labelBackgroundColor=none;fontFamily=Verdana;fontSize=12;edgeStyle=elbowEdgeStyle;elbow=vertical;exitX=0.96;exitY=0.335;exitDx=0;exitDy=0;exitPerimeter=0;entryX=0.2;entryY=0.015;entryDx=0;entryDy=0;entryPerimeter=0;" edge="1" parent="1">
          <mxGeometry relative="1" as="geometry">
            <mxPoint x="448" y="260.28" as="sourcePoint" />
            <mxPoint as="offset" />
            <mxPoint x="645" y="259.5799999999998" as="targetPoint" />
          </mxGeometry>
        </mxCell>
        <mxCell id="kUAFl6Fe_6QXL4x13sF0-23" value="7.-Usuario existe" style="html=1;verticalAlign=bottom;endArrow=block;labelBackgroundColor=none;fontFamily=Verdana;fontSize=12;edgeStyle=elbowEdgeStyle;elbow=vertical;exitX=1.08;exitY=1;exitDx=0;exitDy=0;exitPerimeter=0;entryX=0.08;entryY=0;entryDx=0;entryDy=0;entryPerimeter=0;" edge="1" parent="1" source="kUAFl6Fe_6QXL4x13sF0-8" target="kUAFl6Fe_6QXL4x13sF0-13">
          <mxGeometry relative="1" as="geometry">
            <mxPoint x="680" y="260" as="sourcePoint" />
            <Array as="points">
              <mxPoint x="770" y="280" />
            </Array>
            <mxPoint x="790" y="270" as="targetPoint" />
          </mxGeometry>
        </mxCell>
        <mxCell id="kUAFl6Fe_6QXL4x13sF0-32" value="8.-Captura los datos" style="html=1;verticalAlign=bottom;endArrow=block;labelBackgroundColor=none;fontFamily=Verdana;fontSize=12;edgeStyle=elbowEdgeStyle;elbow=vertical;exitX=0.5;exitY=1;exitDx=0;exitDy=0;exitPerimeter=0;entryX=0.967;entryY=0.012;entryDx=0;entryDy=0;entryPerimeter=0;" edge="1" parent="1" source="kUAFl6Fe_6QXL4x13sF0-13" target="kUAFl6Fe_6QXL4x13sF0-11">
          <mxGeometry relative="1" as="geometry">
            <mxPoint x="861" y="300" as="sourcePoint" />
            <Array as="points">
              <mxPoint x="760" y="310" />
            </Array>
            <mxPoint x="670" y="300" as="targetPoint" />
          </mxGeometry>
        </mxCell>
      </root>
    </mxGraphModel>
  </diagram>
</mxfile>
